<svg width="80" height="80" viewBox="0 0 80 80" fill="none" xmlns="http://www.w3.org/2000/svg">
<g clip-path="url(#clip0_5613_1962)">
<rect width="80" height="80" rx="12" fill="#B6E3F4"/>
<path fill-rule="evenodd" clip-rule="evenodd" d="M65.4796 90.8437C65.3029 89.1976 65.194 87.54 65.1315 85.8855C65.069 84.2331 65.1507 82.5603 65.1865 80.9072C65.2596 77.5444 65.3783 74.1735 65.1114 70.8158C64.8591 67.6425 64.2799 64.4913 63.3658 61.4422C62.9207 59.9573 62.4517 58.4126 61.7196 57.0405C60.9835 55.661 59.8175 54.7424 58.5367 53.8999C57.173 53.003 55.8203 52.0891 54.462 51.1838C53.3218 50.4239 51.2698 49.5395 50.3343 48.5236C49.3499 47.4547 49.1649 44.805 48.5093 43.5388C47.8709 42.3054 46.0637 41.5008 44.6722 41.5008C42.3689 41.5008 40.6237 41.3828 38.7298 43.5195C37.7849 44.5857 38.5367 45.6635 37.5463 46.6867C36.6357 47.6275 34.3069 48.5944 33.1333 49.1403C31.7276 49.7941 30.2864 50.3713 28.8244 50.8855C27.3329 51.4101 25.8039 51.801 24.3041 52.2961C22.8665 52.7706 20.9894 54.7265 19.8733 55.7613C18.8358 56.7235 18.5783 56.6158 17.7895 57.7847C16.0583 60.3498 14.3252 62.9445 12.9467 65.7218C12.26 67.1053 11.5951 68.5605 11.346 70.097C11.0802 71.7357 11.3437 73.3193 11.7747 74.906C12.2134 76.5207 13.6064 78.058 14.0603 79.6686C14.2694 80.4108 13.5515 81.2208 13.8817 81.9203C14.0467 82.2696 14.2544 82.5806 14.4908 82.8849C14.673 83.1194 15.3835 83.0675 15.4755 83.3545C15.5683 83.6444 15.0543 84.246 15.0466 84.5461C15.0358 84.9754 15.0187 85.4048 15.0047 85.8342L14.9216 88.3726C14.8671 90.0407 14.8125 91.7089 14.758 93.377C14.7401 93.9215 14.7141 94.4535 14.8443 94.9702C14.7973 94.9265 14.7526 94.8789 14.7118 94.8255C14.5924 94.6692 14.3392 94.8017 14.4406 94.9846C14.6097 95.2897 14.8529 95.5045 15.1387 95.6588C15.4708 96.1499 65.767 97.2466 66.0145 95.811C66.1533 95.0055 65.9006 94.1432 65.7996 93.3429C65.6944 92.5094 65.5694 91.6794 65.4796 90.8437Z" fill="white"/>
<path fill-rule="evenodd" clip-rule="evenodd" d="M14.3884 70.1C14.5114 69.7465 15.0742 69.8995 14.9503 70.2553C14.3133 72.0851 14.7652 74.0764 15.4538 75.8231C15.592 76.1736 15.0282 76.3242 14.8919 75.9785C14.1675 74.141 13.7193 72.0216 14.3884 70.1ZM18.6594 80.552C20.4558 80.8054 22.2537 80.9618 24.0625 81.0882C24.1434 81.094 24.2133 81.0816 24.2738 81.0553C24.2199 81.886 24.1762 82.7174 24.1419 83.5488C23.6487 83.535 23.1454 83.5678 22.6566 83.5546C22.0177 83.5371 21.3795 83.505 20.7421 83.4561C19.5081 83.3625 18.2762 83.2135 17.056 83.0074C16.6 82.9307 16.0208 82.884 15.5014 82.732C15.0104 82.5881 14.5733 82.3499 14.3438 81.9013C14.1486 81.5214 14.1129 81.0561 14.1129 80.636C14.1129 80.3466 14.1625 80.0529 14.1923 79.7614C14.2295 79.7352 14.263 79.7037 14.2899 79.6687C14.8319 79.8403 15.3943 79.9609 15.945 80.0777C16.8418 80.2692 17.7517 80.4241 18.6594 80.552ZM17.6462 73.7967C17.6561 74.3551 17.8102 74.8623 18.1099 75.3325C18.3128 75.6506 17.8081 75.9434 17.6067 75.6275C17.2538 75.0739 17.0751 74.4525 17.0634 73.7967C17.0567 73.4198 17.6395 73.421 17.6462 73.7967ZM63.6956 79.8885C63.9388 79.9022 64.1836 79.9105 64.4276 79.9235C64.6428 80.1081 64.9407 80.2027 65.2128 80.1439C65.2222 80.1675 65.2307 80.194 65.2385 80.2246C65.2866 80.4124 65.3106 80.614 65.3383 80.8054C65.366 80.9939 65.3871 81.1839 65.4017 81.3739C65.409 81.4695 65.4549 81.6858 65.3966 81.7691C65.3441 81.8443 65.2283 81.8377 65.1482 81.8472C64.9325 81.8706 64.714 81.8816 64.4969 81.8999C64.0868 81.9356 63.6766 81.9714 63.2672 82.0072C62.8658 82.0424 62.4251 82.0314 62.0325 82.1374C61.9654 81.3475 61.9042 80.5578 61.8474 79.7672C62.4557 79.8572 63.0917 79.8549 63.6956 79.8885ZM12.6931 78.5786C12.9379 79.0527 13.1637 79.5188 13.6321 79.8038C13.6933 79.8403 13.7618 79.86 13.8317 79.8651C13.7793 80.0909 13.7465 80.3218 13.7173 80.5351C13.6532 81.0049 13.6394 81.4907 13.7567 81.9539C13.8711 82.4047 14.0605 82.8073 14.432 83.0959C14.6046 83.2303 14.7933 83.3325 14.9915 83.4136C14.958 83.5079 14.9383 83.6015 14.9485 83.7045C14.9011 83.9433 14.8698 84.1867 14.8356 84.4197C14.7605 84.9369 14.6855 85.4549 14.6265 85.9751C14.5085 87.0096 14.416 88.0441 14.338 89.0823C14.2601 90.1176 14.204 91.1543 14.1574 92.1918C14.1333 92.7222 14.1122 93.2525 14.0925 93.7837C14.0728 94.3295 13.9847 94.8876 14.2251 95.394C14.4189 95.8031 15.0738 95.7797 15.2748 95.394C15.5298 94.9037 15.4548 94.3214 15.4613 93.7837C15.4679 93.2774 15.4766 92.7704 15.4876 92.264C15.5094 91.2274 15.5415 90.1913 15.567 89.1547C15.5917 88.1428 15.6223 87.1316 15.6427 86.1197C15.6529 85.5901 15.6537 85.0604 15.6566 84.5307C15.658 84.237 15.6704 83.9237 15.6486 83.6175C15.8307 83.6606 16.0143 83.6971 16.1956 83.7344C17.5805 84.0193 18.9799 84.2268 20.3881 84.3554C21.0954 84.4197 21.805 84.465 22.5145 84.4906C23.0361 84.5095 23.5766 84.5461 24.1062 84.5264C24.0647 85.7946 24.0458 87.0637 24.048 88.3328C24.0494 89.2481 24.0618 90.1636 24.0844 91.079C24.0968 91.5605 24.107 92.0419 24.1215 92.5234C24.1281 92.7397 24.1281 92.9581 24.1427 93.1736C24.147 93.2408 24.1565 93.3059 24.1689 93.3702C24.1208 93.5069 24.0807 93.6419 24.048 93.7684C23.8877 94.382 23.8877 94.9717 23.9591 95.597C24.0203 96.1274 24.4654 96.6191 25.0533 96.4329C25.1487 96.4029 25.2441 96.3714 25.3388 96.3393C26.2043 96.4379 27.0748 96.4606 27.9526 96.4774C29.2355 96.5023 30.5191 96.5103 31.8026 96.5168C34.3203 96.53 36.8386 96.5366 39.357 96.5439C44.4178 96.5585 49.4785 96.5724 54.5393 96.587C55.9438 96.5914 57.3483 96.595 58.7528 96.5995C59.4799 96.6016 60.2054 96.6023 60.9317 96.6301C61.2705 96.6433 61.6099 96.6616 61.9487 96.6667C62.3413 96.6732 62.6888 96.5599 63.064 96.457C63.276 96.3977 63.3598 96.1844 63.3146 96.004C63.6541 96.085 64.0657 95.9127 64.1815 95.5291C64.266 95.2507 64.2347 94.949 64.1086 94.6911V94.6903C63.8653 93.1495 63.5564 91.616 63.3139 90.0745C63.048 88.3861 62.7923 86.6941 62.5672 84.9991C62.3982 83.719 62.259 84.6264 62.1388 83.3406C62.6626 83.3815 63.2549 83.2216 63.7735 83.1535C64.1458 83.1054 64.521 83.0666 64.8939 83.0155C64.8663 83.3924 64.8743 83.7767 64.8641 84.1384C64.8444 84.8566 64.8531 85.5718 64.8714 86.2901C64.9063 87.6759 64.9843 86.8693 65.1088 88.2494C65.2349 89.6398 65.3893 91.025 65.5765 92.4088C65.6727 93.1211 65.7754 93.8326 65.8839 94.5435C65.9342 94.8752 65.9859 95.2062 66.0391 95.5379C66.1025 95.9287 66.1229 96.2992 66.415 96.5928C66.6372 96.8156 67.091 96.7966 67.2382 96.4861C67.4247 96.0938 67.3402 95.7577 67.271 95.3458C67.2149 95.0147 67.161 94.6838 67.1078 94.3529C66.9942 93.6434 66.8863 92.9333 66.7851 92.2225C66.5898 90.8526 66.4055 89.4805 66.2409 88.107C66.0748 86.7225 65.9029 87.5313 65.7397 86.1469C65.6574 85.4483 65.5751 84.7514 65.4789 84.0552C65.4301 83.6971 65.3995 83.3158 65.3354 82.9468C65.3558 82.9439 65.3762 82.9402 65.3966 82.9366C65.8395 82.8555 66.2176 82.6049 66.329 82.1475C66.4354 81.7099 66.3087 81.2065 66.219 80.777C66.1426 80.4111 66.0734 79.944 65.8386 79.6305C66.6661 78.5734 67.2044 77.2431 67.5477 75.9642C67.9217 74.5709 68.0783 73.1165 68.1114 71.6766C68.1499 70.0086 68.0245 68.3501 67.7395 66.7191C67.7328 66.3735 67.7169 66.028 67.6913 65.6829C67.4407 62.2959 66.3888 58.2871 63.0538 56.7046C63.0407 56.6981 63.0268 56.6922 63.013 56.6863C62.7515 56.3729 62.4251 56.0909 62.1614 55.8272C61.6944 55.3596 61.2064 54.9124 60.6891 54.5004C59.6649 53.6844 58.5416 53.0327 57.3738 52.446C56.193 51.852 54.9946 51.2946 53.8407 50.6465C52.8354 50.081 51.9306 49.4001 51.0717 48.6315C50.1065 47.7672 49.4195 46.6019 49.15 45.33C49.1361 45.2636 49.0378 45.2818 49.0363 45.3453C48.9657 47.6766 50.5348 49.7369 52.3407 51.0403C54.5 52.5973 57.1072 53.3344 59.297 54.8438C59.8412 55.2186 60.3504 55.6417 60.8348 56.0909C60.0925 56.0149 59.3371 56.0631 58.6414 56.2692C58.3675 56.2524 58.0921 56.2473 57.8175 56.2341C57.1895 56.2027 56.5608 56.1735 55.9322 56.1457C54.6508 56.0888 53.3686 56.0369 52.0865 55.9916C49.571 55.9024 47.0549 55.8352 44.5387 55.7907C39.4823 55.7008 34.4194 55.6832 29.3637 55.8301C27.9927 55.8696 20.7836 55.5956 20.1163 55.673C21.0976 54.8211 22.1743 54.1257 23.3581 53.5535C24.8391 52.8398 26.3696 52.3634 27.9512 51.928C31.2082 51.0315 34.5905 50.1672 37.1971 47.89C37.8447 47.3238 38.4202 46.6729 38.8915 45.9518C39.3417 45.2636 39.8422 44.3824 39.8546 43.5429C39.8633 42.9469 39.0357 42.7298 38.7414 43.2405C38.5586 43.5568 38.4683 43.9039 38.3189 44.2356C38.1703 44.5643 37.994 44.8814 37.798 45.1847C37.4127 45.7808 36.9348 46.3126 36.4147 46.7926C35.3059 47.8169 33.9626 48.5672 32.5726 49.1349C29.4169 50.4229 25.9653 50.9665 22.9749 52.6645C21.6665 53.4074 20.4143 54.4325 19.6283 55.7402C19.5015 55.76 19.3755 55.7833 19.2494 55.8096C19.3434 55.6905 19.4381 55.5715 19.5336 55.4531C19.5962 55.3756 19.4993 55.2734 19.4228 55.342C17.936 56.6688 16.5664 58.1015 15.3251 59.6635C14.1377 61.1583 13.0304 62.7248 12.2465 64.4753C10.8377 67.6197 10.5273 71.2164 11.2551 74.5786C11.4532 75.4947 11.733 76.3919 12.0892 77.2591C12.2728 77.707 12.4716 78.1482 12.6931 78.5786Z" fill="#1F2937"/>
<path fill-rule="evenodd" clip-rule="evenodd" d="M44.7905 12.9983C48.9268 12.9983 54.1075 17.7304 55.6237 19.7442C56.8985 21.4372 56.7181 30.1591 56.7181 35.3329C56.7181 36.415 56.2304 38.463 56.0534 39.498C55.4046 43.2909 52.5779 46.4718 46.9832 46.4718C42.4279 46.4718 38.9222 45.0247 35.5322 41.3236C34.7588 40.4793 30.9818 43.5021 30.2093 42.4135C28.1916 42.4135 26.5046 23.5073 30.4659 17.8366C34.4273 12.1659 40.6541 12.9983 44.7905 12.9983Z" fill="white"/>
<path fill-rule="evenodd" clip-rule="evenodd" d="M32.3587 14.33C34.7488 12.1491 37.933 11.1 41.1456 11.1775C42.8095 11.2176 44.4675 11.5354 46.0388 12.0797C46.8249 12.353 47.5861 12.7095 48.3139 13.1128C48.5761 13.2578 48.8179 13.4277 49.0506 13.6081L49.1086 13.6534H49.1094C49.7337 13.8785 50.291 14.2825 50.7965 14.7552C51.8099 14.6741 52.8312 14.7654 53.811 15.0788C55.1747 15.5157 56.4372 16.3157 57.3237 17.4518C58.3564 18.7744 58.6997 20.3787 58.5772 22.0348L58.5546 22.3162C58.4335 23.7792 58.2165 25.6609 57.0192 26.6222C56.9282 26.6953 56.8276 26.7508 56.7235 26.7844C57.4949 28.1097 58.128 29.5811 58.5068 31.0671C59.9528 36.7431 58.8412 42.6624 57.1023 48.1331C56.9595 48.5839 56.2798 48.8834 55.9338 48.4428C55.316 47.6553 54.4186 47.0547 53.4089 46.9422C52.786 46.8728 52.1661 46.9985 51.5775 46.715C51.3465 46.6032 51.1236 46.4206 50.9634 46.1985C49.9697 46.5762 48.8996 46.7544 47.8382 46.7106C46.0964 46.639 44.2344 46.0341 43.036 44.7073C42.8437 44.4944 42.795 44.2552 42.8393 44.0397C42.9895 43.9859 43.1438 43.9459 43.3028 43.9208C44.8224 44.819 46.4975 45.4192 48.2977 45.4569C49.3379 45.4787 50.3525 45.3328 51.196 44.6814C51.3785 44.5404 51.5463 44.3843 51.7015 44.2165C53.4649 43.0788 54.7082 41.1465 55.2993 39.0766C55.85 37.1464 55.7823 35.1365 55.5929 33.1566L55.4929 32.1118C55.3473 30.5784 55.2121 29.0404 55.1743 27.5004L55.1857 27.4998C55.5581 27.4757 55.5608 26.891 55.1857 26.9153C54.2155 26.9783 53.2525 26.8187 52.2853 26.8882C52.2772 26.4296 52.2442 25.9731 52.1098 25.5308C52.0331 25.2781 51.5944 25.2282 51.5479 25.5308C51.4857 25.9355 51.463 26.338 51.4562 26.7446C50.0086 26.7253 48.5624 26.6031 47.1146 26.6533C46.8476 26.3677 46.7626 25.8611 46.6376 25.5088C46.6194 25.4569 46.6012 25.4058 46.5823 25.3539C46.4725 25.8574 46.3169 26.3499 46.1122 26.832L45.7571 26.8332C43.7425 26.8427 41.6869 26.9031 39.7197 27.3227C39.5829 27.2174 39.5016 27.0337 39.4796 26.867C39.3369 25.7816 39.1332 24.7251 38.7723 23.6908L38.7206 23.5449C38.7164 23.5328 38.712 23.5199 38.7073 23.5064C38.4413 23.9369 38.124 24.3382 37.7779 24.7119C37.5739 24.9322 37.3601 25.1428 37.1406 25.3475C36.9273 25.5849 36.707 25.8188 36.4934 26.0569C36.5018 26.1003 36.509 26.1442 36.5149 26.189C36.5803 26.6833 36.5871 27.1845 36.5392 27.6807C36.4527 28.5776 36.2002 29.4419 35.7945 30.2415L35.7817 30.3216C35.7201 30.6963 35.6325 31.0835 35.4278 31.3657C35.6832 31.6526 35.88 31.9954 35.9941 32.3763C36.0956 32.7154 35.6279 33.0092 35.3853 32.7317C35.1926 32.5113 34.9785 32.3289 34.7433 32.1833C34.7285 32.2036 34.7017 32.2135 34.6716 32.1966C34.0167 31.8321 32.9043 31.9424 32.2501 32.2858C31.4364 32.7124 31.1188 33.5884 31.2091 34.4761C31.2958 35.3243 31.6659 36.3157 32.3834 36.7504C32.7127 36.9499 32.9691 36.9667 33.3188 36.871C33.4306 36.8405 33.5692 36.7471 33.6287 36.7007L33.6873 36.6536C33.9165 36.4719 34.13 36.3475 34.4006 36.3428C34.6774 36.2562 34.9555 36.3763 35.0614 36.6673L35.0679 36.6861C35.1174 36.8344 35.2078 37.0207 35.1881 37.2472C35.1677 37.4898 35.057 37.7104 34.8916 37.888C34.8632 37.9186 34.8326 37.9493 34.8013 37.9778C37.6496 41.0704 38.0153 45.8894 36.5547 49.7528C36.4913 49.9223 36.4236 50.0896 36.3529 50.2554C36.1089 50.8238 35.1691 50.6478 35.0497 50.0845C35.014 49.9157 34.9746 49.7477 34.9317 49.5811C34.8527 49.2733 34.7621 48.9683 34.6601 48.6678L34.6213 48.5554C34.5346 48.307 34.4538 48.0564 34.3664 47.808L34.3576 47.7796C34.3543 47.7683 34.3507 47.7554 34.3467 47.7407L34.1988 48.0644L33.7493 49.0412C33.539 49.497 32.8707 49.2493 32.8459 48.81L32.8453 48.795C32.8431 48.7139 32.8402 48.6335 32.8351 48.5539C32.803 47.957 32.7003 47.3769 32.5371 46.8092L32.4783 46.8826C31.6016 47.9696 30.5728 48.9884 29.1614 49.2392C28.8073 49.302 28.4066 48.9309 28.65 48.5722C28.7505 48.4239 28.8474 48.2719 28.9392 48.1177C28.8598 48.0805 28.7847 48.0417 28.7155 48.0023C28.1801 47.7006 27.7343 47.271 27.3656 46.7837C26.584 45.7506 26.3042 44.4501 26.2358 43.1775C26.1629 41.8324 26.2809 40.4144 26.6474 39.1168C26.8062 38.5557 27.0211 38.0173 27.2695 37.4949C27.252 37.4481 27.2352 37.4014 27.2185 37.3546C26.9504 36.605 26.7304 35.8386 26.5476 35.0635C26.1789 33.4986 25.9808 31.8839 25.9568 30.2759C25.913 27.3952 26.4084 24.4684 27.4523 21.782C28.5305 19.0116 30.1521 16.3428 32.3587 14.33ZM31.0161 39.5165C30.8181 39.2038 30.3227 39.4855 30.5066 39.8004L30.5134 39.8116C30.8274 40.3077 30.9745 40.8717 31.1552 41.4248C31.271 41.7806 31.8342 41.6286 31.7169 41.2691L31.678 41.1491C31.4983 40.5883 31.3343 40.0183 31.0161 39.5165ZM32.7404 33.549L32.8719 33.4851C33.2868 33.2866 33.6503 33.1513 34.1405 33.3247C34.7969 33.5563 35.4999 34.2934 35.0562 35.0087C34.893 35.2724 34.6031 35.3776 34.3044 35.3155C33.8009 35.2108 33.671 34.7561 33.4154 34.3828L33.3715 34.3195C33.2157 34.0937 33.0187 33.7814 32.7593 33.6929C32.7003 33.6724 32.6755 33.5804 32.7404 33.549ZM33.1103 18.3629L33.1527 18.3249C33.4346 18.075 33.0208 17.6629 32.7404 17.9113C31.4568 19.0489 31.011 20.8293 30.3451 22.3468C30.1958 22.688 30.6977 22.986 30.8485 22.6419C31.4837 21.1939 31.9052 19.4618 33.1103 18.3629ZM48.5353 17.8653C48.1999 17.7137 47.9065 18.2032 48.229 18.3644L48.241 18.3701C49.3745 18.8838 49.8568 20.0469 50.3187 21.1267C50.4658 21.4715 50.9677 21.1742 50.822 20.8322L50.7387 20.6385C50.2568 19.5257 49.6947 18.3914 48.5353 17.8653ZM50.3121 17.1625C49.9566 17.039 49.8043 17.603 50.1569 17.7265C51.1178 18.0618 51.7771 18.7851 52.3329 19.6122C52.5413 19.9219 53.0461 19.6297 52.8356 19.317C52.1901 18.357 51.4238 17.5512 50.3121 17.1625Z" fill="#1F2937"/>
<path fill-rule="evenodd" clip-rule="evenodd" d="M48.3616 41.3417C47.8718 41.1413 47.4349 40.8071 47.1155 40.3802C47.0044 40.2318 46.9756 40.075 46.9989 39.9317C47.0251 39.7705 47.1202 39.6244 47.2499 39.5264C47.3799 39.4281 47.5426 39.3797 47.6999 39.4044C47.8366 39.4258 47.9727 39.5009 48.0804 39.6566L48.1029 39.6877C48.2928 39.9454 48.5403 40.1568 48.8222 40.2931C49.094 40.4244 49.398 40.4857 49.7126 40.4501C50.3116 40.3822 50.7246 40.0573 51.1635 39.616C51.2179 39.5603 51.2723 39.5028 51.327 39.4445C51.3615 39.3915 51.4095 39.3575 51.4627 39.3397C51.5218 39.3199 51.5887 39.321 51.6499 39.3424C51.709 39.3631 51.7617 39.4023 51.7971 39.4544C51.8308 39.5039 51.8499 39.5651 51.8437 39.6355C51.8035 40.0928 51.5651 40.5009 51.2265 40.8214C50.8504 41.1773 50.3519 41.4235 49.8826 41.5099C49.3655 41.605 48.8386 41.5368 48.3616 41.3417ZM50.1265 34.2871C50.6766 34.6224 51.5148 35.4044 50.923 36.2358C50.2264 36.9688 49.2235 36.1283 48.7293 35.7482C48.271 35.4536 47.7561 36.2113 48.1813 36.5553C51.7526 39.207 53.2019 34.3748 50.4047 33.8928C50.0968 33.8397 49.9824 34.1833 50.1265 34.2871ZM43.7267 31.2025C43.7875 30.4458 44.9365 30.274 45.0508 31.0227C45.1532 31.6934 45.0327 32.3095 44.7314 32.9134C44.4436 33.4902 43.7202 33.2211 43.6655 32.6958C43.5921 31.9917 43.6889 31.6731 43.7267 31.2025ZM52.4731 30.8675C52.6333 30.6571 52.8646 30.5134 53.1417 30.5946C54.0075 30.8484 53.7524 32.0811 53.4483 32.6811C53.2831 33.007 52.749 33.0896 52.5077 32.8027C52.1143 32.3348 51.9259 31.4005 52.426 30.9396C52.4396 30.9158 52.4546 30.8917 52.4731 30.8675ZM44.7192 27.8917L44.856 27.8677C45.2791 27.7943 45.8052 27.7238 46.1045 28.0649C46.2632 28.2458 46.3178 28.582 46.1045 28.7552C45.7291 29.0599 45.3142 28.9418 44.8644 28.9676C44.4938 28.9889 44.1375 29.0504 43.7805 29.1528C42.9973 29.3773 42.359 29.7872 41.6901 30.2372C41.6023 30.2962 41.5127 30.1837 41.5546 30.1013C41.9407 29.3427 42.6891 28.7196 43.4387 28.3398C43.8388 28.137 44.2766 27.9689 44.7192 27.8917ZM51.6839 27.5519L51.7886 27.5734C52.9277 27.8122 54.4077 28.2892 54.9472 29.4114C54.9677 29.57 54.946 29.6041 54.9283 29.6263L54.9225 29.6337C54.9079 29.6526 54.8963 29.6788 54.8277 29.7004C54.8087 29.6958 54.7895 29.691 54.7701 29.6859C54.5228 29.6209 54.3271 29.5314 54.1377 29.4385L53.9324 29.337C53.6941 29.2199 53.4538 29.107 53.1991 29.0236C52.6554 28.8458 52.0963 28.7206 51.5285 28.6537C51.4054 28.6392 51.2869 28.5975 51.1934 28.5261C51.1047 28.4584 51.0369 28.3645 51.006 28.2398C50.9659 28.0784 50.9774 27.9563 51.0638 27.8107C51.1287 27.7013 51.2216 27.6255 51.3283 27.582C51.437 27.5376 51.5608 27.5272 51.6839 27.5519Z" fill="#1F2937"/>
<path fill-rule="evenodd" clip-rule="evenodd" d="M56.2682 34.941C55.7777 35.6018 54.8684 35.8123 54.0297 35.7396C52.2208 35.565 51.6515 33.5046 51.5922 31.9032C52.8052 32.2455 51.4897 29.8218 55.6361 29.5553C57.0978 29.4331 56.6948 30.3184 57.3406 30.9653C57.3273 32.3229 57.102 33.798 56.2682 34.941ZM47.6524 33.381C46.5844 38.3968 40.7363 37.2037 40.122 32.6823C40.6892 32.2808 40.5398 31.2893 41.2446 30.9301C42.3615 30.2144 43.7577 30.245 45.026 30.2618C46.6473 30.3735 47.1093 31.0471 47.9421 31.7819C47.902 32.2727 47.7865 32.8544 47.6524 33.381ZM58.5848 28.7246C58.5249 28.7146 58.4649 28.7051 58.4048 28.6963C58.358 28.6696 58.303 28.6491 58.239 28.6368C58.093 28.5996 57.9479 28.5745 57.8031 28.561C55.7246 28.0919 50.9161 28.758 50.7177 30.5368C50.0558 30.7584 49.483 30.56 48.7159 30.5797C48.1319 28.1318 38.0364 28.4773 37.5509 29.9531C37.5491 29.9526 37.5472 29.9522 37.5453 29.9516C37.0788 29.8068 36.3911 29.8417 35.8571 29.8188C34.7169 29.7948 33.5755 29.8967 32.46 30.1379C30.371 30.4708 27.5201 30.8606 28.9729 33.4767C28.9732 33.4772 28.9734 33.4777 28.9738 33.4781L28.974 33.4779C29.2244 33.7353 29.6493 33.528 29.6651 33.1796C29.1767 31.9402 30.2799 31.7914 31.1287 31.4352C33.2408 30.6742 35.3911 30.5687 37.5756 30.8041C37.7399 30.9982 37.9893 31.1674 38.2528 31.2559C39.7134 31.4991 38.9437 32.5856 39.8669 32.7436C39.6973 36.5312 44.2824 38.5986 46.9391 36.1088C47.9999 35.0688 48.2527 33.528 48.4986 32.1392C48.6287 32.1099 48.7114 32.0386 48.7597 31.9442C49.0724 31.6311 49.2689 31.3419 49.8873 31.2559C50.5057 31.17 50.9818 31.3425 51.0461 31.3953C51.0624 31.4281 51.0798 31.461 51.1001 31.4939C51.1283 31.5429 51.1668 31.582 51.2105 31.6128C50.5998 35.3844 53.5193 37.7696 56.4667 35.8135C57.7474 34.6053 58.018 32.7556 58.0715 31.1046C58.2451 30.9995 58.355 30.7959 58.2949 30.5399C58.2121 30.187 58.4063 29.8815 58.7156 29.728C59.1175 29.5288 59.0464 28.8012 58.5848 28.7246Z" fill="#1F2937"/>
</g>
<defs>
<clipPath id="clip0_5613_1962">
<rect width="80" height="80" rx="12" fill="white"/>
</clipPath>
</defs>
</svg>
